<svg width="117" height="123" viewBox="0 0 117 123" fill="none" xmlns="http://www.w3.org/2000/svg">
<path d="M108.84 0.247002C102.391 2.09525 98.3355 11.1504 97.0058 26.6544C96.7664 29.3935 96.5404 34.0607 96.5404 36.2015V37.7838L95.9819 37.3583C92.7641 34.9383 89.0942 33.223 85.3711 32.3986C83.217 31.9199 81.7677 31.787 79.3211 31.8401C72.7259 31.9731 66.503 34.3399 59.5886 39.3262C59.3626 39.4858 59.336 39.3927 59.2562 37.7971C59.0568 34.1006 58.6313 31.3748 58.0196 30.0185C57.6606 29.2074 56.7564 28.25 55.9985 27.8511C54.4561 27.0533 51.7037 27.5852 49.4033 29.1409C47.5418 30.3775 45.1084 32.997 43.9915 34.9649C43.7788 35.3239 43.6192 35.4702 43.4862 35.417C43.3799 35.3771 42.8746 35.2441 42.356 35.1378C41.1859 34.8851 37.0905 34.9782 35.7741 35.284C35.2954 35.3904 34.8699 35.4835 34.8167 35.4968C34.7636 35.4968 34.4976 35.151 34.2317 34.7256C30.8277 29.5132 26.0941 26.6012 22.7699 27.7048C21.9853 27.9708 21.0147 28.7819 20.5493 29.5531C19.9908 30.5238 19.5387 32.5582 19.2063 35.6297C19.0999 36.627 19.0867 43.2887 19.2063 44.0732C19.2329 44.3657 19.3127 45.1369 19.3526 45.8018C19.4324 46.9586 19.4191 47.0384 18.967 48.1553C18.4218 49.4717 18.0495 50.8811 17.7703 52.5831C17.5309 54.0325 17.5841 57.2503 17.8766 58.4337C17.983 58.8725 18.0628 59.2315 18.0495 59.2448C18.0362 59.2448 17.3714 59.4842 16.5603 59.7634C14.2466 60.5479 12.518 61.2792 11.9064 61.6914C10.1246 62.9147 9.45978 64.6699 9.45978 68.1404C9.44649 71.4247 10.2576 73.592 12.2521 75.6397L13.1297 76.5439L13.6749 78.5252C16.0816 87.2744 16.1082 95.6381 13.7413 101.981C12.5579 105.132 11.1485 107.353 8.79494 109.706C6.78713 111.714 4.97877 112.964 2.10666 114.333C1.04292 114.852 0.138739 115.371 0.0855522 115.49C-0.0740091 115.916 0.00577155 119.001 0.191926 119.453C0.59083 120.41 1.5216 120.782 5.15163 121.394C7.95725 121.859 9.95176 122.032 13.0366 122.046C17.3315 122.072 20.1105 121.753 24.0065 120.782C34.4045 118.176 44.1245 112.392 51.2516 104.574L52.4616 103.244L55.9187 103.177C59.3227 103.111 59.3892 103.111 60.1338 102.752C61.4103 102.154 61.9555 101.515 64.2824 97.872C66.7423 94.0159 67.5534 92.5665 68.3911 90.479C69.7341 87.1947 70.3058 84.6949 70.8111 79.9878C71.2499 75.9057 71.3297 75.6132 72.3137 74.6957C74.3215 72.8474 77.6191 72.0363 83.1106 72.0097C86.4082 71.9964 87.6315 72.0762 89.4399 72.4618C93.6683 73.3394 96.3941 75.2408 97.3382 77.98C97.5642 78.6182 97.6307 79.3628 97.7504 82.3546C97.8967 85.6921 97.8435 95.2658 97.6839 96.396C97.644 96.6487 97.4845 98.0581 97.3249 99.5208L97.0457 102.167L97.4712 102.526C97.7105 102.725 98.269 103.031 98.7211 103.204C99.4258 103.47 99.7715 103.51 101.394 103.51C102.976 103.51 103.402 103.457 104.279 103.191C105.449 102.832 106.234 102.247 106.659 101.436C107.404 99.9596 109.864 89.5615 110.821 83.8306C111.911 77.262 112.151 74.576 112.164 68.5393C112.164 61.9707 111.951 60.4282 109.757 51.6524C107.484 42.5574 106.938 39.8847 106.367 35.0314C106.181 33.4624 106.141 28.968 106.287 27.4522C107.045 19.8598 109.664 13.9693 115.143 7.57352C116.432 6.07099 116.911 5.16681 116.991 4.08978C117.124 2.22823 115.807 0.871948 113.228 0.193817C112.151 -0.0854187 109.877 -0.0588226 108.84 0.247002ZM32.7823 41.8792C33.3807 42.1053 33.7929 42.4111 34.4577 43.0626C35.3752 43.9934 35.7608 44.6715 36.04 45.855C36.5852 48.1686 35.189 50.8811 32.8887 51.9582C32.1973 52.2773 31.9712 52.3172 30.6548 52.3172C29.272 52.3172 29.139 52.2906 28.3146 51.8917C27.7694 51.6258 27.1844 51.187 26.7456 50.7216C23.9666 47.783 25.0702 43.1823 28.8997 41.7729C29.9767 41.3739 31.5856 41.4271 32.7823 41.8792ZM49.8022 41.8792C50.4139 42.1186 50.8261 42.4111 51.5441 43.1291C52.6344 44.2327 53.0333 45.1103 53.153 46.6129C53.2993 48.4877 52.3685 50.3759 50.7862 51.4396C49.7756 52.1177 48.898 52.3837 47.6747 52.3837C44.2309 52.3837 41.6513 49.219 42.3427 45.8816C42.7682 43.8604 44.0447 42.4377 46.0791 41.7064C46.9966 41.3872 48.7119 41.467 49.8022 41.8792ZM30.4953 58.6199C30.8676 59.6836 31.6388 60.5346 32.6627 61.0399C33.4871 61.4521 33.6732 61.492 34.7636 61.4787C35.814 61.4787 36.0666 61.4255 36.665 61.1197C37.4894 60.6942 38.1409 60.1357 38.5797 59.4975C38.7526 59.2448 38.9387 59.0321 38.9786 59.0321C39.0318 59.0321 39.1382 59.2049 39.2313 59.4177C39.4706 60.0027 40.3881 60.8537 41.2258 61.2659C41.864 61.585 42.1167 61.6249 43.2203 61.6249C44.3505 61.6249 44.5633 61.585 45.2148 61.2393C45.627 61.0266 46.3583 60.4415 46.8769 59.9097L47.8077 58.9523L49.2039 59.298C51.1452 59.79 53.7248 60.6543 55.8522 61.5053C57.7936 62.3031 61.2374 63.9652 62.3012 64.6433L62.966 65.0555L62.5006 65.255C61.397 65.6938 60.0939 67.1697 59.1764 69.0047C57.9664 71.4114 57.5675 74.3633 58.1792 76.411C58.2723 76.7301 58.3254 76.9827 58.2856 76.9827C58.259 76.9827 57.9664 76.7966 57.6473 76.5838C55.0278 74.7755 50.6399 73.1931 45.1483 72.0629C39.7897 70.9593 34.737 69.244 31.6122 67.4755C30.3756 66.7841 29.8836 66.7309 29.8172 67.2894C29.7906 67.5553 29.8703 67.7149 30.1762 67.9276C30.5352 68.1803 32.9419 69.4036 34.1785 69.962L34.6439 70.1615L33.9126 70.2546C28.2215 70.9859 21.1742 72.6879 15.563 74.6824L13.502 75.4137L12.7707 74.6159C11.9197 73.6984 11.4277 72.8607 10.949 71.5045C10.3374 69.736 10.3773 65.8932 11.0421 64.404C11.3745 63.6328 12.3053 62.6621 13.0765 62.2765C14.6588 61.4654 18.4085 60.2288 21.8391 59.3645C24.1926 58.7661 28.3944 58.0348 29.6576 57.9816L30.2559 57.9683L30.4953 58.6199ZM64.4951 66.7309C64.8143 67.0633 65.1201 67.6085 65.3594 68.26C65.6786 69.1376 65.7185 69.4036 65.652 70.2413C65.4658 72.7145 63.6442 76.5173 62.1549 77.5412C61.0114 78.339 60.2136 78.0598 59.5089 76.6503C59.1233 75.8924 59.11 75.7727 59.11 74.1904C59.11 72.2358 59.4025 71.0258 60.2535 69.4036C60.905 68.1537 62.0485 66.7309 62.6469 66.4384C63.4181 66.0661 63.9367 66.1458 64.4951 66.7309ZM38.234 71.3981C39.6834 71.8768 42.7815 72.6613 45.7999 73.3261C49.7357 74.1771 52.4882 75.0813 55.081 76.3844C56.3575 77.0226 58.1127 78.1395 58.1127 78.3124C58.1127 78.4986 54.855 87.9925 54.4029 89.1493C53.7381 90.8114 52.1158 94.0558 51.1452 95.6514C45.7334 104.52 37.4096 111.381 27.796 114.852C24.6846 115.982 21.4136 116.78 18.0894 117.219C16.1215 117.471 10.949 117.578 8.91461 117.392C6.22866 117.152 1.04292 116.168 1.29556 115.942C1.34875 115.889 1.78754 115.676 2.26622 115.464C4.52668 114.466 6.85361 112.977 8.75505 111.302C9.41989 110.717 9.99165 110.278 10.0315 110.318C10.0714 110.371 10.1113 110.557 10.1113 110.743C10.1113 111.807 11.5873 113.363 13.1829 114.001C14.0073 114.333 14.4062 114.4 15.6162 114.453C17.3182 114.52 18.1958 114.36 19.4058 113.775C21.0945 112.951 21.9986 111.674 22.0119 110.092C22.0119 108.602 21.1078 107.353 19.4191 106.502C17.7171 105.651 15.3901 105.478 13.6616 106.089C13.2361 106.236 12.9036 106.315 12.9302 106.262C12.9568 106.209 13.276 105.571 13.6483 104.839C15.1641 101.888 16.1614 98.1645 16.4406 94.5478L16.5337 93.3112L16.9592 94.0026C17.5442 94.96 18.5282 95.9306 19.2728 96.2896C20.1504 96.7284 21.7593 96.7151 22.597 96.2764C26.7855 94.0691 27.5966 85.2666 23.9666 81.3574C23.0092 80.3069 22.0784 79.8681 20.895 79.8681C19.7515 79.8681 18.9271 80.2537 17.9431 81.251C17.2517 81.9557 16.2278 83.6577 16.2278 84.1098C16.2278 84.2162 16.1747 84.296 16.1215 84.296C16.0683 84.296 15.9353 83.8306 15.8422 83.2588C15.5896 81.7164 15.071 79.4825 14.6056 77.8736C14.3663 77.0359 14.2466 76.3844 14.3131 76.3179C14.486 76.1583 18.5016 74.8021 20.6025 74.1904C26.2137 72.5815 32.1175 71.4247 36.9043 71.0125C36.9841 71.0125 37.5692 71.1853 38.234 71.3981ZM63.2984 78.6315C63.2984 79.0836 59.1233 89.7875 58.8174 90.0801C58.7111 90.1864 58.6579 90.2795 58.6978 90.2795C58.8706 90.2795 57.3814 93.4707 57.1287 93.6303C57.049 93.6835 57.0224 93.7367 57.0888 93.7367C57.142 93.7367 56.9559 94.2021 56.6633 94.7605C52.3951 103.231 44.7494 110.504 34.7768 115.543C26.4531 119.772 17.8368 121.593 9.71242 120.862C7.75779 120.676 4.34052 120.157 2.81139 119.798C1.32215 119.439 1.16259 119.28 1.09611 118.043C1.04292 117.166 1.05622 117.099 1.28226 117.192C1.76095 117.378 4.47349 117.924 6.32174 118.203C8.67527 118.575 14.3131 118.721 16.7198 118.482C23.5145 117.804 29.2055 115.995 35.4417 112.552C36.4655 111.98 39.7365 109.799 40.6939 109.028C41.1726 108.656 41.7311 108.217 41.9305 108.057C42.1433 107.898 42.356 107.778 42.4358 107.805C42.5023 107.818 42.5422 107.778 42.5289 107.712C42.5023 107.645 43.1139 106.994 43.8851 106.289C44.6564 105.571 45.5472 104.693 45.8664 104.347C46.1855 103.988 46.5046 103.749 46.5977 103.802C46.6775 103.842 46.7041 103.842 46.6509 103.776C46.5977 103.723 47.0232 103.137 47.5816 102.459C48.1534 101.795 48.9113 100.864 49.2703 100.385C49.6294 99.9064 49.9618 99.4942 50.0017 99.4543C50.1479 99.3213 51.3313 97.4864 52.1956 96.0636C53.1397 94.5079 54.7486 91.2901 55.44 89.6014C55.8522 88.5775 56.2644 87.3941 58.0728 81.9956C58.9105 79.5224 59.1366 78.9905 59.3094 79.057C59.7615 79.2565 61.2507 79.2565 61.9688 79.0437C62.3677 78.9241 62.7799 78.831 62.8729 78.8177C62.9527 78.8044 63.0325 78.7512 63.0325 78.6847C63.0325 78.6315 63.099 78.5783 63.1655 78.5783C63.2453 78.5783 63.2984 78.6049 63.2984 78.6315Z" fill="#373F51"/>
<path d="M29.9368 43.3551C27.2243 43.8737 26.0675 47.1979 27.8891 49.3121C28.9396 50.5354 30.8144 50.9609 32.2106 50.2695C32.9951 49.8972 33.9392 48.86 34.1519 48.1553C34.9763 45.4029 32.7159 42.8233 29.9368 43.3551Z" fill="#373F51"/>
<path d="M46.8503 43.3552C43.8851 43.9269 42.8347 47.6234 45.0818 49.6312C45.8664 50.3493 46.4381 50.562 47.5418 50.5753C48.2864 50.5753 48.6055 50.5088 49.1507 50.2163C50.8128 49.3653 51.5441 47.6101 50.9989 45.7885C50.5069 44.1264 48.6055 43.0094 46.8503 43.3552Z" fill="#373F51"/>
<path d="M38.101 77.4348C35.4816 77.9534 33.3009 79.4293 32.3834 81.3042C30.8676 84.4023 32.7291 87.9127 36.8777 89.8141C39.4972 91.0108 43.2203 91.1438 45.6536 90.1199C46.6376 89.7077 47.9141 88.7903 48.3928 88.1254C49.257 86.942 49.5895 85.2001 49.2039 83.7641C48.6055 81.5169 46.5179 79.2831 43.9516 78.1528C42.2496 77.3949 39.8296 77.1024 38.101 77.4348Z" fill="#373F51"/>
<path d="M34.7768 94.8802C31.4394 95.6248 28.5407 98.2177 27.2908 101.568C26.8254 102.805 26.7988 104.56 27.2376 105.504C27.6365 106.369 28.2082 106.94 29.0459 107.326C30.0033 107.751 31.8649 107.751 33.1679 107.326C37.4894 105.89 41.013 101.622 40.7471 98.1512C40.6673 97.1938 40.4413 96.6619 39.803 95.9705C38.7393 94.8536 36.798 94.4281 34.7768 94.8802Z" fill="#373F51"/>
<path d="M81.3156 72.9937C79.2812 73.1001 77.4063 73.3926 76.0634 73.7915C74.9198 74.1372 73.7231 74.7622 73.7763 74.9882C73.8029 75.0946 74.9198 77.1423 76.2761 79.549C78.9222 84.2694 79.1349 84.6816 79.3875 86.0645C79.587 87.1814 79.5338 87.8595 78.9089 91.1438C78.5233 93.1782 78.1775 94.4414 77.1138 97.6725C76.3825 99.8798 75.7974 101.781 75.7974 101.888C75.7974 101.994 75.9703 102.247 76.1963 102.419C77.4861 103.51 80.5178 103.789 83.0043 103.044C83.8154 102.792 83.9749 102.699 84.5999 101.941C84.9722 101.489 85.7833 100.372 86.3817 99.4543C89.4133 94.8403 91.7536 89.6679 92.9503 84.9608C93.7481 81.7563 93.9475 80.2538 93.9475 77.1955V75.201L93.3492 74.8553C90.8361 73.3793 86.5279 72.7145 81.3156 72.9937Z" fill="#373F51"/>
</svg>
